<svg width="34" height="34" viewBox="0 0 34 34" fill="none" xmlns="http://www.w3.org/2000/svg">
<rect x="0.5" y="0.5" width="33" height="33" rx="16.5" stroke="#3B77E0"/>
<path d="M21.0662 13.9947C21.3591 13.7018 21.3591 13.2269 21.0662 12.934C20.7733 12.6411 20.2985 12.6411 20.0056 12.934L17.0004 15.9392L13.9952 12.934C13.7023 12.6411 13.2274 12.6411 12.9345 12.934C12.6416 13.2269 12.6416 13.7018 12.9345 13.9947L15.9397 16.9999L12.9345 20.0051C12.6416 20.298 12.6416 20.7729 12.9345 21.0658C13.2274 21.3586 13.7023 21.3586 13.9952 21.0658L17.0004 18.0605L20.0056 21.0658C20.2985 21.3586 20.7734 21.3586 21.0663 21.0658C21.3591 20.7729 21.3591 20.298 21.0663 20.0051L18.061 16.9999L21.0662 13.9947Z" fill="#3B77E0"/>
</svg>
