<svg width="33" height="33" viewBox="0 0 33 33" fill="none" xmlns="http://www.w3.org/2000/svg">
<rect y="0.25293" width="32.4175" height="32.4175" rx="16.2088" fill="white"/>
<path d="M16.2088 24.9687C20.9072 24.9687 24.716 21.1598 24.716 16.4614C24.716 11.7629 20.9072 7.9541 16.2088 7.9541C11.5103 7.9541 7.70146 11.7629 7.70146 16.4614C7.70146 21.1598 11.5103 24.9687 16.2088 24.9687Z" stroke="#4A8DFF" stroke-width="1.70146" stroke-linecap="round" stroke-linejoin="round"/>
<path d="M16.2088 20.7146V16.4609" stroke="#4A8DFF" stroke-width="1.70146" stroke-linecap="round" stroke-linejoin="round"/>
<path d="M16.209 12.4883C16.1143 12.4883 16.0218 12.5164 15.9431 12.5689C15.8644 12.6215 15.803 12.6963 15.7668 12.7837C15.7306 12.8712 15.7211 12.9674 15.7396 13.0603C15.758 13.1531 15.8036 13.2384 15.8706 13.3053C15.9375 13.3723 16.0228 13.4178 16.1156 13.4363C16.2085 13.4548 16.3047 13.4453 16.3921 13.4091C16.4796 13.3729 16.5543 13.3115 16.6069 13.2328C16.6595 13.1541 16.6876 13.0616 16.6876 12.9669C16.6878 12.904 16.6755 12.8417 16.6515 12.7835C16.6275 12.7254 16.5923 12.6726 16.5478 12.6281C16.5033 12.5836 16.4505 12.5484 16.3923 12.5244C16.3342 12.5004 16.2719 12.4881 16.209 12.4883Z" fill="#4A8DFF" stroke="#4A8DFF" stroke-width="1.70146" stroke-linecap="round" stroke-linejoin="round"/>
</svg>
