<svg width="40" height="40" viewBox="0 0 40 40" fill="none" xmlns="http://www.w3.org/2000/svg">
<path d="M26.6666 11.6666C26.6666 10.7461 27.4128 9.99991 28.3333 9.99991C29.2538 9.99991 30 10.7461 30 11.6666C30 12.5871 29.2538 13.3332 28.3333 13.3332C27.4128 13.3332 26.6666 12.5871 26.6666 11.6666Z" fill="white"/>
<path fill-rule="evenodd" clip-rule="evenodd" d="M20 12.0832C15.6277 12.0832 12.0833 15.6277 12.0833 19.9999C12.0833 24.3722 15.6277 27.9166 20 27.9166C24.3722 27.9166 27.9166 24.3722 27.9166 19.9999C27.9166 15.6277 24.3722 12.0832 20 12.0832ZM14.5833 19.9999C14.5833 17.0084 17.0084 14.5832 20 14.5832C22.9915 14.5832 25.4166 17.0084 25.4166 19.9999C25.4166 22.9915 22.9915 25.4166 20 25.4166C17.0084 25.4166 14.5833 22.9915 14.5833 19.9999Z" fill="white"/>
<path fill-rule="evenodd" clip-rule="evenodd" d="M28.7637 4.72161C22.9861 4.07587 17.0139 4.07587 11.2363 4.72161C7.88283 5.0964 5.17561 7.73808 4.78136 11.109C4.09046 17.0161 4.09046 22.9837 4.78136 28.8909C5.17561 32.2617 7.88284 34.9034 11.2363 35.2782C17.0139 35.924 22.9861 35.924 28.7637 35.2782C32.1172 34.9034 34.8244 32.2617 35.2186 28.8909C35.9095 22.9837 35.9095 17.0161 35.2186 11.109C34.8244 7.73808 32.1172 5.0964 28.7637 4.72161ZM11.5139 7.20614C17.107 6.58103 22.893 6.58103 28.4861 7.20614C30.7029 7.4539 32.4787 9.20326 32.7356 11.3994C33.4039 17.1136 33.4039 22.8862 32.7356 28.6004C32.4787 30.7966 30.7029 32.5459 28.4861 32.7937C22.893 33.4188 17.107 33.4188 11.5139 32.7937C9.2971 32.5459 7.52129 30.7966 7.26443 28.6004C6.5961 22.8862 6.5961 17.1136 7.26443 11.3994C7.52129 9.20326 9.2971 7.4539 11.5139 7.20614Z" fill="white"/>
</svg>
