<svg width="101" height="187" viewBox="0 0 101 187" fill="none" xmlns="http://www.w3.org/2000/svg">
<path d="M44.3719 0.195809C36.2107 1.23295 28.176 4.25009 21.4698 8.8701C17.2311 11.793 11.3474 17.7015 8.65861 21.7244C-0.198529 35.0501 -2.34955 50.6701 2.61678 65.5672C5.14739 73.1415 9.38617 79.8358 15.1433 85.4301C22.4188 92.4701 30.8964 96.8387 41.3984 98.8815L43.1698 99.2273L43.3596 101.804C43.5494 104.57 44.0239 113.182 46.2382 155.924C47.029 171.136 47.7566 184.084 47.9147 184.682C48.1994 185.97 49.3698 186.756 50.6035 186.442C52.1219 186.064 52.4382 185.122 52.9127 179.276C53.1658 176.29 54.7158 157.024 56.3607 136.47C58.0372 115.916 59.4607 99.0073 59.5239 98.8815C59.6188 98.7558 60.3464 98.5358 61.1688 98.4101C63.5413 98.0644 69.0453 96.1472 72.3668 94.4815C82.4892 89.4844 90.6505 81.313 95.427 71.413C102.165 57.3644 102.07 41.3044 95.1739 27.633C92.5168 22.3844 89.9862 18.9587 85.6525 14.653C78.2188 7.29867 69.8678 2.80438 59.7453 0.792952C56.2341 0.101523 47.7882 -0.244191 44.3719 0.195809ZM45.6056 26.4072C50.9198 27.8215 54.8107 32.3472 55.1902 37.5644C55.38 40.4244 54.8739 42.4987 53.3239 45.0444C49.9392 50.6701 42.6953 52.6501 36.6851 49.5701C34.2494 48.3444 31.8454 45.5158 30.8647 42.7501C28.5556 36.213 32.0984 28.9215 38.6464 26.8158C41.43 25.9358 43.3913 25.8101 45.6056 26.4072Z" fill="#FF4747"/>
</svg>
