<svg width="33" height="34" viewBox="0 0 33 34" fill="none" xmlns="http://www.w3.org/2000/svg">
<path d="M7.70168 16.7368C7.70168 18.9931 8.59798 21.1569 10.1934 22.7524C11.7888 24.3478 13.9527 25.2441 16.209 25.2441C18.4653 25.2441 20.6291 24.3478 22.2245 22.7524C23.82 21.1569 24.7163 18.9931 24.7163 16.7368C24.7163 14.4805 23.82 12.3166 22.2245 10.7212C20.6291 9.12579 18.4653 8.22949 16.209 8.22949C13.9527 8.22949 11.7888 9.12579 10.1934 10.7212C8.59798 12.3166 7.70168 14.4805 7.70168 16.7368V16.7368Z" stroke="#A0A3BD" stroke-width="1.70146" stroke-linecap="round" stroke-linejoin="round"/>
<path d="M14.5075 18.4384C14.5075 18.7749 14.6073 19.1038 14.7943 19.3836C14.9812 19.6634 15.2469 19.8815 15.5578 20.0103C15.8687 20.1391 16.2109 20.1728 16.5409 20.1071C16.871 20.0415 17.1741 19.8794 17.4121 19.6415C17.65 19.4035 17.8121 19.1004 17.8777 18.7703C17.9434 18.4402 17.9097 18.0981 17.7809 17.7872C17.6521 17.4763 17.4341 17.2106 17.1542 17.0237C16.8744 16.8367 16.5455 16.7369 16.209 16.7369C15.8725 16.7369 15.5435 16.6371 15.2637 16.4502C14.9839 16.2632 14.7658 15.9975 14.637 15.6866C14.5082 15.3757 14.4745 15.0336 14.5402 14.7035C14.6059 14.3735 14.7679 14.0703 15.0059 13.8323C15.2438 13.5944 15.547 13.4323 15.877 13.3667C16.2071 13.301 16.5492 13.3347 16.8601 13.4635C17.171 13.5923 17.4367 13.8104 17.6237 14.0902C17.8106 14.37 17.9104 14.6989 17.9104 15.0354" stroke="#A0A3BD" stroke-width="1.70146" stroke-linecap="round" stroke-linejoin="round"/>
<path d="M16.209 12.1992V13.3335" stroke="#A0A3BD" stroke-width="1.70146" stroke-linecap="round" stroke-linejoin="round"/>
<path d="M16.209 20.1396V21.274" stroke="#A0A3BD" stroke-width="1.70146" stroke-linecap="round" stroke-linejoin="round"/>
</svg>
